<svg height="510" width="720" xmlns="http://www.w3.org/2000/svg">
<rect height="510" fill="#555" width="720"></rect>
<text fill="#7f7" font-family="Courier New" font-size="12" xml:space="preserve">
<tspan x="10" y="26">2 megabytes installed</tspan>
<tspan x="10" y="42"></tspan>
<tspan x="10" y="58">node_modules</tspan>
<tspan x="10" y="74">└─┬ pino@4.2.4 </tspan>
<tspan x="10" y="90">  ├─┬ chalk@1.1.3 </tspan>
<tspan x="10" y="106">  │ ├── ansi-styles@2.2.1 </tspan>
<tspan x="10" y="122">  │ ├── escape-string-regexp@1.0.5 </tspan>
<tspan x="10" y="138">  │ ├─┬ has-ansi@2.0.0 </tspan>
<tspan x="10" y="154">  │ │ └── ansi-regex@2.1.1 </tspan>
<tspan x="10" y="170">  │ ├── strip-ansi@3.0.1 </tspan>
<tspan x="10" y="186">  │ └── supports-color@2.0.0 </tspan>
<tspan x="10" y="202">  ├── fast-json-parse@1.0.2 </tspan>
<tspan x="10" y="218">  ├── fast-safe-stringify@1.1.13 </tspan>
<tspan x="10" y="234">  ├── flatstr@1.0.5 </tspan>
<tspan x="10" y="250">  ├─┬ pump@1.0.2 </tspan>
<tspan x="10" y="266">  │ ├── end-of-stream@1.4.0 </tspan>
<tspan x="10" y="282">  │ └─┬ once@1.4.0 </tspan>
<tspan x="10" y="298">  │   └── wrappy@1.0.2 </tspan>
<tspan x="10" y="314">  ├── quick-format-unescaped@1.1.1 </tspan>
<tspan x="10" y="330">  └─┬ split2@2.1.1 </tspan>
<tspan x="10" y="346">    └─┬ through2@2.0.3 </tspan>
<tspan x="10" y="362">      ├─┬ readable-stream@2.2.9 </tspan>
<tspan x="10" y="378">      │ ├── buffer-shims@1.0.0 </tspan>
<tspan x="10" y="394">      │ ├── core-util-is@1.0.2 </tspan>
<tspan x="10" y="410">      │ ├── inherits@2.0.3 </tspan>
<tspan x="10" y="426">      │ ├── isarray@1.0.0 </tspan>
<tspan x="10" y="442">      │ ├── process-nextick-args@1.0.7 </tspan>
<tspan x="10" y="458">      │ ├── string_decoder@1.0.0 </tspan>
<tspan x="10" y="474">      │ └── util-deprecate@1.0.2 </tspan>
<tspan x="10" y="490">      └── xtend@4.0.1</tspan>
</text>
</svg>
